<?xml version="1.0" encoding="UTF-8"?> <svg xmlns="http://www.w3.org/2000/svg" width="132.793" height="39.199" viewBox="0 0 132.793 39.199"><path d="M18.75,30.18q.43.957.742,1.8a3.948,3.948,0,0,1-1.035.714,9.187,9.187,0,0,1-1.5.577q-.234.059-.557.157t-.732.2q-.566.039-1.357.117t-1.865.215a24.169,24.169,0,0,1-2.705,1.879,7.951,7.951,0,0,1-1.982.881l-.293.254a7.678,7.678,0,0,1-1.611.479q-.947.186-2.236.322a1.131,1.131,0,0,1-.479-.283,4.973,4.973,0,0,1-.557-.635q.2-.216.488-.56t.645-.815a2.5,2.5,0,0,1,.693-.7A2.785,2.785,0,0,1,5.43,34.4a14.177,14.177,0,0,0,1.426-.391,4.045,4.045,0,0,1,.479-.322q.283-.166.635-.4a4.924,4.924,0,0,0,.938-.605q.488-.391,1.074-.957L11.23,30.5q.469-.459.566-.576a4.137,4.137,0,0,1,.332-.5,2.4,2.4,0,0,1,.43-.42q.273-.469.684-1.182t.977-1.65a3.369,3.369,0,0,0,.244-.283q.146-.186.342-.4a2.906,2.906,0,0,0,.566-1.367,12.05,12.05,0,0,0,.176-2.227,4.407,4.407,0,0,0-.459-1.875,9.116,9.116,0,0,0-1.415-2.07,13.605,13.605,0,0,0-1.7-1.611,10,10,0,0,0-1.815-1.162q-.7-.352-1.317-.693t-1.122-.615q-.273.977-.693,2.7t-.947,4.18Q5.5,23.52,5.2,25.219A16.745,16.745,0,0,0,4.91,27.5q-.117.488-.2.977l-.781,3.848A14.2,14.2,0,0,1,2.763,34.3q-.488.645-.761.645-.138,0-.257-.225a3.316,3.316,0,0,1-.237-.713l.237-1.114a1.866,1.866,0,0,1-.118-.332q.118-1.27.217-2.569T2.061,27.4q.1-1.446.293-2.716t.43-2.345l-.234-1a6.1,6.1,0,0,0,.244-.918q.107-.547.186-1.25.078-.9.137-1.456a3.727,3.727,0,0,1,.137-.772q.078-.254.166-.645t.205-.938a2.888,2.888,0,0,1,.684-.83,5.064,5.064,0,0,0,.8-.928,1.862,1.862,0,0,0,.605-.166.32.32,0,0,0,.2-.283q0-.137-.225-.234a2.644,2.644,0,0,0-.674-.156,2.976,2.976,0,0,1-.5-.049,2.849,2.849,0,0,1-.576-.166l-1.6-.782a3.247,3.247,0,0,1-.777-.469.661.661,0,0,1-.267-.489q.118-.391.2-.782-.138-.391-.227-.645A1.294,1.294,0,0,1,1.172,9a.394.394,0,0,1,.088-.273.312.312,0,0,1,.244-.1q.547.1.957.176.2-.059.391-.127t.391-.146a4.663,4.663,0,0,1,.84.068,3.142,3.142,0,0,1,.566.146q.273.137.566.293t.566.274q.234-.039.625-.1a.57.57,0,0,1,.215.039,2.874,2.874,0,0,0,.566.283,5.634,5.634,0,0,0,.762.225q.469.078.8.166a2.816,2.816,0,0,1,.527.186q2.07,1.075,3.623,2.023a18.2,18.2,0,0,1,2.568,1.847,9.329,9.329,0,0,1,2.363,2.971,7.529,7.529,0,0,1,.762,3.3,12.475,12.475,0,0,1-1.621,5.8,30.018,30.018,0,0,1-4.824,6.45,7.276,7.276,0,0,1,.723-.255q.449-.137,1.035-.333,1.23-.274,2.539-.587a8.741,8.741,0,0,0,1.387-.509A3.108,3.108,0,0,0,18.75,30.18Zm-.117,0q.313-.41.625-.859a17.726,17.726,0,0,0,2.334-2.256,8.623,8.623,0,0,0,1.318-2.021l-.2-.937a3.758,3.758,0,0,1,1.26-1.152,3.255,3.255,0,0,1,1.631-.664,1.674,1.674,0,0,1,1.123.391q.459.391.889.82.215.137.313.215A3.52,3.52,0,0,1,29.1,25.336a7.163,7.163,0,0,1,.391,2.52,6.427,6.427,0,0,1-.605,2.236,6.411,6.411,0,0,0-.605,2.2.2.2,0,0,0,.068.156.276.276,0,0,0,.186.059,1.183,1.183,0,0,0,.605-.225,5.173,5.173,0,0,0,.762-.615,9.653,9.653,0,0,1,1.25-1.123,3.07,3.07,0,0,0,.527-.361q.156.391.371.84t.41.957q-.176.156-.4.371t-.537.488q-.664.488-1.729,1.182t-2.549,1.592a3.56,3.56,0,0,1-.9.41,2.456,2.456,0,0,1-1.23-.244.85.85,0,0,1-.41-.791,1.711,1.711,0,0,1,.088-.5,4.8,4.8,0,0,1,.244-.615q.117-.254.254-.518a4.329,4.329,0,0,0,.234-.537,18.965,18.965,0,0,0,.654-2.285,9.191,9.191,0,0,0,.225-1.895,3.155,3.155,0,0,0-.322-1.582,1.236,1.236,0,0,0-.967-.625,5.758,5.758,0,0,0-.937.664,8.233,8.233,0,0,0-1.035,1.074,14.65,14.65,0,0,1-1.016,1.152,3.5,3.5,0,0,1-.742.605,3.349,3.349,0,0,1-.566.664,7.806,7.806,0,0,1-1.035.8l-.117.234a1.66,1.66,0,0,1-.254.352q-.156-.449-.352-.889T18.633,30.18Zm19.414,4.531a1.041,1.041,0,0,1-.146.527,1.778,1.778,0,0,1-.439.488,1.113,1.113,0,0,1-.244.439.515.515,0,0,1-.381.146,1.863,1.863,0,0,1-1.367-.566,3.927,3.927,0,0,1-.9-1.68l.137-.137-.2-.508q.1-.312.176-.605l.156-.586a.935.935,0,0,1,.322-.537.848.848,0,0,1,.518-.166,1.761,1.761,0,0,1,.947.273,2.535,2.535,0,0,1,.791.84,3.734,3.734,0,0,1,.479,1.025A3.82,3.82,0,0,1,38.047,34.711Zm13.691,1.113q.176-.156.5-.42t.83-.635a2.216,2.216,0,0,0,.566-.489.8.8,0,0,0,.176-.489q0-.919-.01-1.173t-.01-.391q0-1.877.1-2.932a3.911,3.911,0,0,1,.254-1.31L54.1,27.4l-.117-.137q0-.215.01-.381T54,26.6a1.284,1.284,0,0,0-.947-1.369,1.175,1.175,0,0,1-.947-1.192q0-.273.547-.673a14.291,14.291,0,0,1,1.6-.966q.137-.956.293-2.088t.371-2.5q-.078-.254-.117-.42a1.33,1.33,0,0,1-.039-.3,4.686,4.686,0,0,1,.156-1.249,5.138,5.138,0,0,1,.43-1.073,5.71,5.71,0,0,1,.449-.6q.273-.322.664-.712a3.462,3.462,0,0,0,.469-.517.7.7,0,0,0,.156-.361.305.305,0,0,0-.127-.254.583.583,0,0,0-.361-.1,7.586,7.586,0,0,0-2.129.459,7.575,7.575,0,0,1-2.109.459.749.749,0,0,1-.342-.059.2.2,0,0,1-.107-.2,5.239,5.239,0,0,1,.039-.684,1.439,1.439,0,0,1,.1-.41,2.923,2.923,0,0,0,.518-.488.755.755,0,0,0,.186-.469q0-.1.205-.254a1.906,1.906,0,0,1,.654-.273q1.8-.508,2.744-.781l1.084-.312a18.041,18.041,0,0,1,2.09-.4A14.733,14.733,0,0,1,61.387,8.7a3,3,0,0,1,.391.049.873.873,0,0,0,.391.01q.391-.059.82-.137a5.858,5.858,0,0,1,.684.107l1.582.3q.215-.039.469-.1a2.258,2.258,0,0,1,.947.176,1.432,1.432,0,0,1,.6.488,2.516,2.516,0,0,0,.527.059,1.624,1.624,0,0,1,.928.283,2.475,2.475,0,0,1,.732.81,5.751,5.751,0,0,1,.43,1,3.4,3.4,0,0,1,.156,1.025,4.524,4.524,0,0,1-.439,1.962,5.583,5.583,0,0,1-1.318,1.727q-.1.059-.947.693t-2.471,1.767a3.514,3.514,0,0,0-.41.332,5.757,5.757,0,0,1-.566.449q-1.6.956-3.086,1.835a18.382,18.382,0,0,0-1.895,1.151q-.645.468-.645.664a.917.917,0,0,0,.332.694,2.923,2.923,0,0,0,1.016.538q1,.352,2.246.8t2.676,1.075a1.632,1.632,0,0,1,.342.156q.205.117.459.254a6.163,6.163,0,0,1,2.49,1.534,3.062,3.062,0,0,1,.811,2.1q0,1.74-3.135,3.3a43.634,43.634,0,0,1-9.385,2.971q-.1.273-.225.547t-.225.527a.957.957,0,0,1-.391.342,1.294,1.294,0,0,1-.586.127.715.715,0,0,1-.586-.264,1.685,1.685,0,0,1-.293-.83q-.156-.137-.254-.117l-1.113.293q-.215-.117-.4-.205t-.381-.186a1.013,1.013,0,0,1-.312-.283.614.614,0,0,1-.117-.361.353.353,0,0,1,.127-.283A3.277,3.277,0,0,1,51.738,35.824Zm6-9.265q-.312,0-.537.538a6.544,6.544,0,0,0-.361,1.593q-.078.977-.156,1.965t-.156,1.965q-.117.489-.2,1.036l.039.2.156.078q.781-.215,1.738-.45a1.4,1.4,0,0,0,.791-.127q.127-.127,3.154-1.476a9.743,9.743,0,0,0,1.934-1.026q.645-.479.645-.831a.609.609,0,0,0-.176-.41,2.388,2.388,0,0,0-.527-.41,14.157,14.157,0,0,0-2.031-1.066,21.7,21.7,0,0,0-2.441-.87q-.176-.059-.4-.127t-.5-.147q-.43-.2-.654-.313A.842.842,0,0,0,57.734,26.559Zm3.789-14.641a5.454,5.454,0,0,0-1.2.107,1.174,1.174,0,0,0-.654.342,1.769,1.769,0,0,0-.322.6,12.357,12.357,0,0,0-.361,1.23,7.774,7.774,0,0,0-.107.956q-.029.527-.01,1.151a5.226,5.226,0,0,1-.449.858l.1.508q-.234.976-.332,1.561a5.983,5.983,0,0,0-.1.78.571.571,0,0,0,.117.41.449.449,0,0,0,.332.117,2.87,2.87,0,0,0,.928-.429q.732-.429,2.021-1.288,1.426-.937,2.178-1.434t.869-.556l.5-.615.479-.6A3.946,3.946,0,0,0,66,14.894a1.345,1.345,0,0,0,.156-.576,1.318,1.318,0,0,0-.293-.839,2.375,2.375,0,0,0-.879-.644q-.2-.078-.693-.234a12.8,12.8,0,0,0-1.279-.312q-.645-.176-1.016-.273A2.628,2.628,0,0,0,61.523,11.918ZM68.789,30.18a5.045,5.045,0,0,1,.605-.83,7.326,7.326,0,0,1,.938-.869q.059-.391.117-.771a7.55,7.55,0,0,0,.078-.771,5.78,5.78,0,0,1,.186-.645q.127-.371.283-.8.176-.43.479-1.074a15.405,15.405,0,0,1,.791-1.445q.41-.449.859-.986t.9-1.084a4.286,4.286,0,0,1,.469-.332A5.941,5.941,0,0,0,75,20.219a4.409,4.409,0,0,1,.527-.137,3.292,3.292,0,0,1,.645-.059,2.639,2.639,0,0,1,.791.1,1.055,1.055,0,0,1,.5.332,1.685,1.685,0,0,1,.264.469,6.237,6.237,0,0,1,.244.762q.059.391.137.859,0-.117-.068.1t-.205.684l-.176.625a6.866,6.866,0,0,1-1.23,2.168,28.672,28.672,0,0,1-2.578,2.813,1.218,1.218,0,0,0-.234.342,1.009,1.009,0,0,0-.1.439,1.685,1.685,0,0,0,.146.723,1.02,1.02,0,0,0,.42.469,1.883,1.883,0,0,0,.5.234,6.812,6.812,0,0,0,.811.215,6.256,6.256,0,0,0,1.387-.254,5.841,5.841,0,0,0,1.113-.469q.1-.059.313-.166a2.324,2.324,0,0,0,.43-.283q.254.566.449,1.016t.313.781a11.819,11.819,0,0,1-2.021,1.65,3.251,3.251,0,0,1-1.67.557,2.239,2.239,0,0,1-.713.283,4.468,4.468,0,0,1-.947.088,3.536,3.536,0,0,1-1.279-.215,2.387,2.387,0,0,1-.928-.625,2.312,2.312,0,0,1-.391-.576q-.2-.381-.41-.908A2.905,2.905,0,0,0,70.7,31.6a.443.443,0,0,0-.352-.205.61.61,0,0,0-.352.146,2.516,2.516,0,0,0-.43.439,4.825,4.825,0,0,0-.273-.723Q69.1,30.824,68.789,30.18Zm6.25-6.348q-.43,0-1.152,1.123a3.689,3.689,0,0,0-.723,1.65.23.23,0,0,0,.049.166.3.3,0,0,0,.205.049.4.4,0,0,0,.352-.225q.137-.225.254-.42.215-.2.42-.42l.4-.439a2.151,2.151,0,0,0,.352-.547,1.379,1.379,0,0,0,.117-.547.521.521,0,0,0-.068-.283A.227.227,0,0,0,75.039,23.832Zm3.574,6.348.176-.156a.981.981,0,0,1,.273-.508,6.38,6.38,0,0,1,.723-.684q.293-.215.615-.41a5.776,5.776,0,0,0,.615-.43q1.23-1.055,2.383-2.031a10.494,10.494,0,0,1,1.328-1.006,9.234,9.234,0,0,1,1.25-.674,4.4,4.4,0,0,1,1.533-1.074,4.46,4.46,0,0,1,1.826-.547.615.615,0,0,1,.439.156.673.673,0,0,1,.205.391v1.074a1.657,1.657,0,0,1-.322,1.006,3.081,3.081,0,0,1-.967.811q-.43.2-.859.43t-.859.43a6.577,6.577,0,0,1-.83.732q-.674.537-1.826,1.436-.527.41-.879.732a3.566,3.566,0,0,0-.488.518,3.5,3.5,0,0,0-.3.82,4.476,4.476,0,0,0-.107,1.035,1.969,1.969,0,0,0,.137.771,1.2,1.2,0,0,0,.41.518,2.709,2.709,0,0,0,.537.273,7.777,7.777,0,0,0,.85.273,5.216,5.216,0,0,1,.771-.225q.479-.107,1.064-.283.664-.391,1.357-.82t1.377-.879a2.712,2.712,0,0,1,.244-.127,1.309,1.309,0,0,0,.3-.205,5.675,5.675,0,0,1,.537-.586q.342-.332.83-.762a19.576,19.576,0,0,1,.781,1.8q-.723.586-1.465,1.2a6.476,6.476,0,0,1-1.7,1.006,6.944,6.944,0,0,0-.527.469,6.445,6.445,0,0,1-2.275,1.475,8.221,8.221,0,0,1-2.959.5,3.4,3.4,0,0,1-.664-.059,1.959,1.959,0,0,1-.488-.156q-.586-.391-1-.684a6.792,6.792,0,0,1-.723-.6,2.277,2.277,0,0,1-.43-.537,1.785,1.785,0,0,1-.244-.664,5.669,5.669,0,0,1-.068-.957,2.18,2.18,0,0,1,.1-.508,2.2,2.2,0,0,0,.1-.488,9.214,9.214,0,0,0-.332-.879Q78.867,30.648,78.613,30.18Zm12.324,0q.43-.371.664-.586a4.934,4.934,0,0,0,.371-.371,3.894,3.894,0,0,0,.508-.566,1.04,1.04,0,0,0,.215-.488q.176-.664.41-1.66t.605-2.3q.176-.391.381-.986t.439-1.338a10.536,10.536,0,0,1,.586-1.777,9.445,9.445,0,0,1,.781-1.445,2.875,2.875,0,0,0,.273-.439,6.331,6.331,0,0,0,.273-.615,7.4,7.4,0,0,1,.381-.732q.244-.42.557-.986.8-1.172,1.406-2.012t1-1.348q.7-.84,1.416-1.572t1.436-1.357a6.986,6.986,0,0,1,1.152-.83,1.791,1.791,0,0,1,.781-.264,1.874,1.874,0,0,1,.391.43.991.991,0,0,0,.273-.039.793.793,0,0,1,.742.41,2.492,2.492,0,0,1,.234,1.211,2.374,2.374,0,0,1-.059.459q-.059.283-.156.693a.773.773,0,0,0-.2.352q-.059.215-.1.43a3.819,3.819,0,0,1-.059.469,2.273,2.273,0,0,1-.1.352q-.254.469-.547,1.143t-.625,1.572q-.2.332-.488.879t-.7,1.211q-.2.371-.5.928t-.771,1.279a2.324,2.324,0,0,1-.4.6q-.283.322-.674.752a5.986,5.986,0,0,1-.654,1.074q-.537.762-1.494,1.973-.469.605-1.211,1.5T95.762,28.3q-.371,1.465-.557,2.607a12.6,12.6,0,0,0-.186,1.982,1.891,1.891,0,0,0,.049.5q.049.166.186.166a2.267,2.267,0,0,1,.283-.312,4.784,4.784,0,0,0,.381-.41,4.955,4.955,0,0,0,.869-1.23q.5-.9,1.143-2.324A14.594,14.594,0,0,1,98.945,27.3a2.339,2.339,0,0,1,.742-.83l.684-.293q.2-.078.352-.137a.765.765,0,0,1,.254-.059.591.591,0,0,1,.469.313,2.67,2.67,0,0,1,.352.859q.254,1,.41,1.533t.176.635a2.092,2.092,0,0,0,.615.859,1.4,1.4,0,0,0,.869.273q.605-.1,1.426-.273.156.391.361.84t.42.957q-.469.312-.947.605t-.947.586a2.694,2.694,0,0,1-.9.264,9.33,9.33,0,0,1-1.367.088,2.038,2.038,0,0,1-1.846-1.123q-.654-1.123-.791-1.1H99.16q-.313.391-.654.8t-.674.859a8.64,8.64,0,0,1-.605,1.035q-.391.586-.937,1.289a8.247,8.247,0,0,1-1.133,1.172,1.45,1.45,0,0,1-.84.391,3.257,3.257,0,0,1-1.162-.166.731.731,0,0,1-.5-.5q-.234-1.094-.361-1.9a9.128,9.128,0,0,1-.127-1.377,2.229,2.229,0,0,1,.02-.312q.02-.137.039-.254.059-.254.137-.547a.2.2,0,0,0-.049-.146.23.23,0,0,0-.166-.049,1.7,1.7,0,0,1-.156.176,1.821,1.821,0,0,1-.273.215,7.247,7.247,0,0,0-.273-.7Q91.25,30.824,90.938,30.18Zm12.7-18.047q-.215,0-.859.771a26.937,26.937,0,0,0-1.641,2.275q-.566.84-1.113,1.67L98.945,18.48a1.647,1.647,0,0,0-.342.469,1.159,1.159,0,0,0-.107.488q-.391,1.094-.762,2.051-.352,1.035-.576,1.6l-.264.664.1.1a4.385,4.385,0,0,0,.664-.742q.391-.449.947-1.162t1.26-1.67A16.176,16.176,0,0,0,101.309,18q.742-1.377,1.6-3.174.488-.977.732-1.562a2.6,2.6,0,0,0,.244-.82.459.459,0,0,0-.049-.225A.214.214,0,0,0,103.633,12.133Zm1.641,18.047a3.382,3.382,0,0,0,.352-.479,4.686,4.686,0,0,1,.469-.615l1.289-1.133a.214.214,0,0,0,.088-.156q.01-.1.01-.273a2.561,2.561,0,0,0-.059-.41,10.541,10.541,0,0,1,.176-1.5,4.752,4.752,0,0,1,.313-1.27l-.117-.371q.254-1.309.713-2.861t1.045-3.369a6.674,6.674,0,0,0,.41-.791q.215-.479.488-1.084a16.438,16.438,0,0,1,.879-2.129q.547-1.113,1.23-2.285a14.729,14.729,0,0,1,1.631-2.324,1.921,1.921,0,0,1,1.279-.781,2.127,2.127,0,0,1,1.553.439,2.421,2.421,0,0,1,.42,1.65,6.64,6.64,0,0,1-.107.967,6.663,6.663,0,0,0-.107.986,3.054,3.054,0,0,1-.215.938,3.352,3.352,0,0,0-.215,1.113.965.965,0,0,1-.1.313l.02.273q-.078.273-.234.664t-.41.938q-.137.488-.352,1.133t-.508,1.406q-.117.2-.3.479t-.4.635a3.841,3.841,0,0,1-.2.586q-.137.332-.371.781a3.85,3.85,0,0,1-.312.508q-.2.273-.469.7a5.425,5.425,0,0,0-.254.488q-.137.293-.312.664-.215.332-.566.82t-.8,1.152q-.605,1.074-1.25,2.051a4.6,4.6,0,0,0,.752,2.861,2.681,2.681,0,0,0,2.256.967,3.609,3.609,0,0,0,.586-.137q.488-.137,1.348-.43a6.107,6.107,0,0,0,.605-.439q.352-.283.8-.674l.762,1.8q-.508.449-1.016.918t-1.035.918a4.875,4.875,0,0,1-1.23.771,3.15,3.15,0,0,1-1.23.264q-.313,0-.957-.068t-.977-.068a2.228,2.228,0,0,1-1.807-.879,5.654,5.654,0,0,1-1.006-2.637,1.354,1.354,0,0,0-.107-.312,1.286,1.286,0,0,0-.244-.312q-.254.254-.6.605t-.83.8Zm9.316-15.332-.137-.078a9.849,9.849,0,0,0-1.65,1.992,3.557,3.557,0,0,0-.557,1.816,1.488,1.488,0,0,1-.127.459q-.127.322-.381.83-.313.605-.645,1.328-.371,1.094-.566,1.777a4.138,4.138,0,0,0-.2.977l.117.156q.176-.02.43-.352a6.8,6.8,0,0,0,.586-.977,6.826,6.826,0,0,1,.449-.82q.293-.469.664-1.113a12.491,12.491,0,0,0,1-2.207,13.473,13.473,0,0,0,.742-2.266,4.4,4.4,0,0,1,.107-.771Q114.512,15.219,114.59,14.848Zm1.7,15.332a10.2,10.2,0,0,1,1.377-1.133,13.268,13.268,0,0,0,1.377-1.094q.294-.352.764-.85l1.116-1.182a3.813,3.813,0,0,1,.764-.547,1.59,1.59,0,0,1,.744-.2,1.064,1.064,0,0,1,.732.234.945.945,0,0,1,.264.742,8.727,8.727,0,0,1-.586,2.461,8.746,8.746,0,0,0-.586,2.578.353.353,0,0,0,.088.273.3.3,0,0,0,.205.078l.1-.02q.371-.234.869-.6t1.123-.889q.508-.469,1.26-1.23t1.768-1.758q.391-.313.889-.8t1.123-1.172a1.651,1.651,0,0,1,.713-.547,2.868,2.868,0,0,1,1.123-.2,1.13,1.13,0,0,1,.674.166.579.579,0,0,1,.225.5,1.169,1.169,0,0,1-.029.264q-.029.127-.049.244-.137.586-.41,1.436t-.664,2q-.332.723-.693,1.729t-.771,2.217l.136.176a6.072,6.072,0,0,0,1.217-.928q.808-.732,2.035-1.963l.781,1.8-.381.381a4.213,4.213,0,0,1-.6.479,30.187,30.187,0,0,0-3.582,2.939,15.276,15.276,0,0,0-2.371,2.881q-1.308,2.148-2.177,3.5T123.6,44.047a12.405,12.405,0,0,1-2.557,2.637,4.09,4.09,0,0,1-2.362.859.919.919,0,0,1-.625-.176.7.7,0,0,1-.2-.547,1.607,1.607,0,0,1,.1-.488,2.2,2.2,0,0,1,.352-.625,11.553,11.553,0,0,0,.682-1.094l.582-.508a1.457,1.457,0,0,0,.078-.352,2.3,2.3,0,0,1,.223-.234q.146-.137.34-.312a6.207,6.207,0,0,1,.732-1.162q.6-.811,1.67-2.08.8-.937,1.465-1.67t1.133-1.24q.078-.156.166-.371a3.719,3.719,0,0,0,.146-.43q.254-.508.557-1.23t.732-1.7a9.165,9.165,0,0,0,.332-1.3q.137-.732.254-1.592a.558.558,0,0,1-.049-.205,1.646,1.646,0,0,0-.088-.361,4.083,4.083,0,0,0-.771.527q-.42.352-.908.82a8.812,8.812,0,0,1-1.309,1.4,5.793,5.793,0,0,1-1.309.85,2.8,2.8,0,0,1-2.656,1.641,1.4,1.4,0,0,1-.977-.3,1.2,1.2,0,0,1-.332-.928,1.841,1.841,0,0,1,.029-.293q.029-.176.088-.41-.078-.2-.2-.547.078-.332.137-.742a3.275,3.275,0,0,0-.088-.879q-.088-.293-.283-.293l-.078.039q-.215.156-.605.469t-.937.762q-.1-.254-.244-.605t-.3-.82a1.079,1.079,0,0,0-.1-.215A.537.537,0,0,0,116.289,30.18Z" transform="translate(-1.172 -8.344)" fill="#818b8c"></path></svg> 