<?xml version="1.0" encoding="UTF-8"?> <svg xmlns="http://www.w3.org/2000/svg" width="97" height="97" viewBox="0 0 97 97"><g id="Bezahlbare-Medizin" transform="translate(-2516 -1687)"><g id="Gruppe_8490" data-name="Gruppe 8490"><rect id="Rechteck_100" data-name="Rechteck 100" width="97" height="97" transform="translate(2516 1687)" fill="rgba(255,255,255,0)"></rect><g id="hand_2_" data-name="hand (2)" transform="translate(2526.363 1696.932)"><path id="Pfad_3143" data-name="Pfad 3143" d="M221.329,332.8a1.527,1.527,0,1,0-2.159,0A1.528,1.528,0,0,0,221.329,332.8Zm0,0" transform="translate(-184.92 -279.803)" fill="#fff"></path><path id="Pfad_3144" data-name="Pfad 3144" d="M188.449,16.782A16.782,16.782,0,1,0,205.231,0,16.8,16.8,0,0,0,188.449,16.782Zm30.514,0A13.731,13.731,0,1,1,205.231,3.052,13.747,13.747,0,0,1,218.963,16.782Zm0,0" transform="translate(-159.265)" fill="#fff"></path><path id="Pfad_3145" data-name="Pfad 3145" d="M18.074,257.6a1.525,1.525,0,0,0,2.153.013l7.4-7.287a4.61,4.61,0,0,0,1.086-4.734l1.591-1.534a4.55,4.55,0,0,1,3.177-1.283H53.761a13.66,13.66,0,0,0,9.577-3.891c.106-.1-.805.971,13.837-16.53a6.1,6.1,0,0,0-9.287-7.921l-9,9.253a6.131,6.131,0,0,0-4.743-2.271H37.129a19.683,19.683,0,0,0-7.64-1.526c-7.347,0-13.762,3.393-17.2,9.755A4.557,4.557,0,0,0,8.2,230.909L.946,238.189a1.526,1.526,0,0,0,0,2.152Zm11.414-34.661a16.655,16.655,0,0,1,6.717,1.4,1.523,1.523,0,0,0,.612.128H54.142a3.051,3.051,0,1,1,0,6.1H41.694a1.525,1.525,0,1,0,0,3.051H54.142a6.093,6.093,0,0,0,6.049-6.9c8.709-8.952,9.937-10.21,9.989-10.273a3.052,3.052,0,1,1,4.659,3.943L61.156,236.75a10.624,10.624,0,0,1-7.4,2.974H33.478a7.585,7.585,0,0,0-5.3,2.139l-1.3,1.251L14.933,231.162c2.793-5.241,8.035-8.221,14.555-8.221ZM10.363,233.066a1.522,1.522,0,0,1,1.889-.215c.264.161-.494-.529,13.214,13.16a1.529,1.529,0,0,1,.008,2.15l-6.306,6.212L4.179,239.268Zm0,0" transform="translate(0 -179.917)" fill="#fff"></path><path id="Differenzmenge_1" data-name="Differenzmenge 1" d="M-2511.932-1665.435a14.626,14.626,0,0,1-14.43-14.783,14.626,14.626,0,0,1,14.43-14.782,14.138,14.138,0,0,1,2.971.315,17.757,17.757,0,0,0-2.537,2.38c-.141-.005-.287-.008-.434-.008a11.967,11.967,0,0,0-11.807,12.1,11.967,11.967,0,0,0,11.807,12.094c.252,0,.507-.008.758-.025a17.746,17.746,0,0,0,2.6,2.309A14.112,14.112,0,0,1-2511.932-1665.435Z" transform="translate(2540.546 1698)" fill="#fff"></path></g></g></g></svg> 