<?xml version="1.0" encoding="UTF-8"?> <svg xmlns="http://www.w3.org/2000/svg" width="97" height="97" viewBox="0 0 97 97"><g id="Digitale-Technik" transform="translate(-2516 -1794)"><rect id="Rechteck_101" data-name="Rechteck 101" width="97" height="97" transform="translate(2516 1794)" fill="rgba(255,255,255,0)"></rect><g id="Gruppe_8489" data-name="Gruppe 8489" transform="translate(2526.864 1813.562)"><g id="Gruppe_8488" data-name="Gruppe 8488" transform="translate(0 0)"><path id="Pfad_3156" data-name="Pfad 3156" d="M18.759,7.479c-1.607.036-3.22.074-4.823-.01a1.7,1.7,0,0,0-1.995,1.248,6.129,6.129,0,0,1-6.992,3.609A6.238,6.238,0,0,1,0,6.068,6.109,6.109,0,0,1,4.938.079C7.254-.3,10.946.667,12.019,3.793a1.393,1.393,0,0,0,1.6,1.08q5.542-.018,9.922-.024V7.676C21.41,7.527,19.1,7.471,18.759,7.479ZM6.247,2.069A4.336,4.336,0,0,0,2.283,6.1a4.019,4.019,0,0,0,3.958,4.057A4,4,0,0,0,10.2,6.239,4.014,4.014,0,0,0,6.247,2.069Z" transform="translate(12.527 26.605)" fill="#fff"></path><path id="Pfad_3157" data-name="Pfad 3157" d="M13.7,4.63c1.688-.071,3.382-.053,5.07.015a2.468,2.468,0,0,1,1.409.548c1.431,1.232,2.776,2.564,4.2,3.8a2.386,2.386,0,0,0,1.385.608q6.222.062,10.3.078v2.555c-3.671-.026-8.394-.046-9.828.069-1.811.146-2.915-.635-4.137-1.837C20.5,8.884,19.027,6.834,16.3,7.051c-1.064.085-2.145.043-3.192.214-.327.053-.724.574-.829.953-.868,3.133-4.7,4.58-6.915,4.259A6.27,6.27,0,0,1,4.588.233a6.128,6.128,0,0,1,7.264,3.252A1.66,1.66,0,0,0,13.7,4.63ZM10.245,6.172A3.97,3.97,0,0,0,6.1,2.337,3.9,3.9,0,0,0,2.342,6.409a3.9,3.9,0,0,0,4.282,3.782C8.7,10.539,10.316,7.74,10.245,6.172Z" transform="translate(0 12.615)" fill="#fff"></path><path id="Pfad_3158" data-name="Pfad 3158" d="M5.264.083A6.149,6.149,0,0,1,11.92,3.71a1.544,1.544,0,0,0,1.732,1.123c1.523-.047,3.052.077,4.575.023a2.763,2.763,0,0,0,1.534-.565c1.413-1.136,2.719-2.407,4.145-3.524A3.3,3.3,0,0,1,25.759.082Q28.005.053,30.252.047V2.882a8.812,8.812,0,0,0-2.941-.2,2.3,2.3,0,0,0-.492.01,6.72,6.72,0,0,0-1.965.744c-1.371,1.054-2.6,2.287-3.963,3.355a3.206,3.206,0,0,1-1.744.655c-1.853.069-3.712.044-5.565-.038-.845-.037-1.189.236-1.481,1.043a6.183,6.183,0,0,1-7.952,3.734A6.188,6.188,0,0,1,.023,5.706,6.228,6.228,0,0,1,5.264.083Zm.914,10.138a3.944,3.944,0,1,0-3.9-3.973A3.958,3.958,0,0,0,6.178,10.222Z" transform="translate(5.82 40.53)" fill="#fff"></path><path id="Pfad_3159" data-name="Pfad 3159" d="M23.459,14.82c-1.416-.078-2.251-1.17-3.189-2.043-1.69-1.573-3.358-3.171-5.058-4.734a1.865,1.865,0,0,0-3.171.668A6.267,6.267,0,1,1,5.094.122a6.1,6.1,0,0,1,6.918,3.719c.361.93.83,1.217,1.712,1.043A3.487,3.487,0,0,1,17.1,6.14c1.816,1.854,3.744,3.6,5.674,5.34a2.711,2.711,0,0,0,.688.442ZM6.28,2.329a3.9,3.9,0,0,0-3.948,3.9,3.944,3.944,0,1,0,3.948-3.9Z" transform="translate(12.613 0)" fill="#fff"></path></g><g id="Gruppe_8487" data-name="Gruppe 8487" transform="translate(32.816 0.062)"><g id="Gruppe_42" data-name="Gruppe 42"><path id="Pfad_48" data-name="Pfad 48" d="M155.352,116.055a10.733,10.733,0,0,1,4.967,1.63,8.3,8.3,0,0,0,3.578,1.286,12.009,12.009,0,0,0,4.2-1.33,13.912,13.912,0,0,1,5.4-1.586c6.949,0,11.992,7.453,11.992,17.723,0,5.747-3.307,38.736-11.992,38.736-2.9,0-3.931-4.622-5.488-11.616-.722-3.251-2.645-11.885-4.109-11.891-2.036.007-3.289,8.172-3.964,12.558-1.012,6.594-1.682,10.95-4.587,10.95-8.686,0-11.992-32.989-11.992-38.735C143.36,123.509,148.4,116.055,155.352,116.055Zm-.227,53.461c.743-1.026,1.42-5.438,1.876-8.4,1.137-7.405,2.314-15.063,6.9-15.078,3.85.017,5.315,6.6,7.011,14.217.741,3.332,1.849,8.308,2.769,9.275,4.025-.692,8.839-24.1,8.839-35.748,0-8.409-3.879-14.752-9.021-14.752a12.025,12.025,0,0,0-4.2,1.33,13.915,13.915,0,0,1-5.4,1.585,10.733,10.733,0,0,1-4.967-1.63,8.3,8.3,0,0,0-3.578-1.286c-5.142,0-9.021,6.342-9.021,14.752C146.331,145.379,151.111,168.657,155.126,169.517Z" transform="translate(-143.36 -116.055)" fill="#fff"></path></g></g></g></g></svg> 