<?xml version="1.0" encoding="UTF-8"?> <svg xmlns="http://www.w3.org/2000/svg" width="97" height="97" viewBox="0 0 97 97"><g id="Hoher-Service" transform="translate(-2516 -1570)"><rect id="Rechteck_99" data-name="Rechteck 99" width="97" height="97" transform="translate(2516 1570)" fill="rgba(255,255,255,0)"></rect><g id="social-care" transform="translate(2526.989 1578.274)"><g id="Gruppe_8467" data-name="Gruppe 8467" transform="translate(11.198 68.8)"><g id="Gruppe_8466" data-name="Gruppe 8466"><path id="Pfad_3147" data-name="Pfad 3147" d="M81.477,474.506l-2.2-3.1a1.461,1.461,0,1,0-2.383,1.692l2.2,3.1a1.461,1.461,0,0,0,2.383-1.692Z" transform="translate(-76.624 -470.791)" fill="#fff"></path></g></g><g id="Gruppe_8469" data-name="Gruppe 8469" transform="translate(0.001 22.863)"><g id="Gruppe_8468" data-name="Gruppe 8468"><path id="Pfad_3148" data-name="Pfad 3148" d="M32.912,206.649l-2.394-11.412a21.522,21.522,0,0,0-9.1-13.511L16.3,178.288a5.142,5.142,0,0,0-6.518.665V161.345a4.892,4.892,0,0,0-7.954-3.816A4.869,4.869,0,0,0,0,161.345V184a14.156,14.156,0,0,0,2.627,8.238l2.606,3.671a1.461,1.461,0,1,0,2.383-1.692L5.011,190.55A11.248,11.248,0,0,1,2.924,184V161.345a1.969,1.969,0,1,1,3.939,0v17.977A10.211,10.211,0,0,0,9.5,186.178c.073.087.148.174.227.257.971,1.028,2.112,2.24,3.186,3.382l1.5,1.6.015.014,2.256,2.4a1.461,1.461,0,1,0,2.13-2c-.027-.028-1.737-1.85-3.691-3.926l-3.351-3.566-.025-.028a2.466,2.466,0,0,1,.048-3.232,2.209,2.209,0,0,1,2.877-.367l5.112,3.437a18.613,18.613,0,0,1,7.872,11.686l2.394,11.412a1.461,1.461,0,1,0,2.86-.6Z" transform="translate(-0.001 -156.451)" fill="#fff"></path></g></g><g id="Gruppe_8471" data-name="Gruppe 8471" transform="translate(8.168 64.531)"><g id="Gruppe_8470" data-name="Gruppe 8470"><path id="Pfad_3149" data-name="Pfad 3149" d="M58.544,442.2l-.009-.013a1.461,1.461,0,0,0-2.379,1.7l.009.013a1.461,1.461,0,0,0,2.379-1.7Z" transform="translate(-55.884 -441.575)" fill="#fff"></path></g></g><g id="Gruppe_8473" data-name="Gruppe 8473" transform="translate(41.881 22.864)"><g id="Gruppe_8472" data-name="Gruppe 8472"><path id="Pfad_3150" data-name="Pfad 3150" d="M317.692,157.532a4.892,4.892,0,0,0-7.954,3.816v17.609a5.142,5.142,0,0,0-6.518-.665l-5.112,3.437a21.52,21.52,0,0,0-9.1,13.511l-2.394,11.412a1.461,1.461,0,1,0,2.86.6l2.394-11.412a18.613,18.613,0,0,1,7.872-11.686l5.112-3.437a2.209,2.209,0,0,1,2.877.367,2.466,2.466,0,0,1,.051,3.228l-.028.031-7.042,7.493a1.461,1.461,0,1,0,2.13,2c.02-.021,5.991-6.37,6.962-7.4.079-.084.154-.17.227-.257a10.212,10.212,0,0,0,2.634-6.856V161.347a1.969,1.969,0,1,1,3.939,0v22.659a11.248,11.248,0,0,1-2.087,6.546l-11.041,15.553a1.461,1.461,0,1,0,2.383,1.692L316.9,192.244a14.156,14.156,0,0,0,2.627-8.238V161.347A4.87,4.87,0,0,0,317.692,157.532Z" transform="translate(-286.58 -156.454)" fill="#fff"></path></g></g><g id="Gruppe_8475" data-name="Gruppe 8475" transform="translate(13.649 7.891)"><g id="Gruppe_8474" data-name="Gruppe 8474"><path id="Pfad_3151" data-name="Pfad 3151" d="M135.663,74.117l-2.6-.621V73.03a6.536,6.536,0,0,0,2.8-5.359v-3.38a6.535,6.535,0,0,0-10.784-4.971,8.533,8.533,0,0,0-15.814.012,6.535,6.535,0,0,0-10.8,4.959v3.38a6.536,6.536,0,0,0,2.8,5.359V73.5l-2.6.621A6.846,6.846,0,0,0,93.39,80.8v2.729a1.461,1.461,0,0,0,1.461,1.461h6.715c-.01.177-.018.355-.018.535v5.255a1.461,1.461,0,0,0,1.461,1.461h8.784a1.461,1.461,0,1,0,0-2.923h-1.51V86.3a1.461,1.461,0,1,0-2.923,0v3.02h-2.89V85.523a6.051,6.051,0,0,1,4.655-5.9l4.01-.961,2.684,6.106a1.461,1.461,0,0,0,1.338.873h0a1.461,1.461,0,0,0,1.338-.873l2.681-6.1,4,.955a6.05,6.05,0,0,1,4.659,5.9v3.789h-2.89V86.3a1.461,1.461,0,1,0-2.923,0v3.02h-1.656a1.461,1.461,0,0,0,0,2.923H131.3a1.461,1.461,0,0,0,1.461-1.461V85.527c0-.181-.007-.361-.018-.539h6.734a1.461,1.461,0,0,0,1.461-1.461V80.8A6.846,6.846,0,0,0,135.663,74.117ZM129.32,60.673a3.622,3.622,0,0,1,3.61,3.379H130.9a10.652,10.652,0,0,1-4.9-1.194A3.623,3.623,0,0,1,129.32,60.673ZM125.7,67.457c0-.071.005-.142.005-.214v-1.3a13.575,13.575,0,0,0,5.191,1.033h2.04v.7a3.618,3.618,0,1,1-7.236,0Zm-14.144-4.921h0a5.613,5.613,0,0,1,11.156-.892l-2.46-1.445a1.461,1.461,0,0,0-1.86.322,6.3,6.3,0,0,1-4.837,2.258h-2Zm-6.554-1.863a3.623,3.623,0,0,1,3.322,2.185,10.652,10.652,0,0,1-4.9,1.194H101.4A3.623,3.623,0,0,1,105.005,60.673Zm-3.618,6.3h2.04a13.575,13.575,0,0,0,5.2-1.035v1.731a3.618,3.618,0,0,1-7.236,0Zm7.059,9.8a8.962,8.962,0,0,0-6.21,5.287H96.313V80.8a3.933,3.933,0,0,1,3.029-3.838l3.722-.889a1.461,1.461,0,0,0,1.122-1.421v-.491a6.343,6.343,0,0,0,1.634,0v.417c0,.022,0,.044,0,.065a1.464,1.464,0,0,0,1.188,1.438l2.18.522Zm4.076-2.269a6.857,6.857,0,0,0-1.17-.395l-2.611-.626v-.455a6.593,6.593,0,0,0,1.267-1.157,8.6,8.6,0,0,0,2.514,2.52Zm6.347,2.147-1.71,3.889-1.714-3.9V75.6a8.565,8.565,0,0,0,3.424.006Zm-1.7-3.8a5.619,5.619,0,0,1-5.613-5.613V65.7h2a9.208,9.208,0,0,0,6.21-2.4l3.014,1.771v2.386A5.619,5.619,0,0,1,117.172,72.857Zm4.62,1.657v-.1a8.6,8.6,0,0,0,2.535-2.526,6.593,6.593,0,0,0,1.256,1.145v.455l-2.611.626A6.881,6.881,0,0,0,121.792,74.514Zm16.22,7.551h-5.943a8.961,8.961,0,0,0-6.215-5.284l-.734-.175,2.192-.525a1.463,1.463,0,0,0,1.194-1.439c0-.011,0-.023,0-.034v-.448a6.342,6.342,0,0,0,1.634,0v.491a1.461,1.461,0,0,0,1.122,1.421l3.722.889a3.933,3.933,0,0,1,3.029,3.838Z" transform="translate(-93.39 -54)" fill="#fff"></path></g></g><g id="Gruppe_8477" data-name="Gruppe 8477" transform="translate(35.951 43.209)"><g id="Gruppe_8476" data-name="Gruppe 8476"><path id="Pfad_3152" data-name="Pfad 3152" d="M248.494,296.1a1.462,1.462,0,1,0,.428,1.035A1.473,1.473,0,0,0,248.494,296.1Z" transform="translate(-246 -295.67)" fill="#fff"></path></g></g><g id="Gruppe_8479" data-name="Gruppe 8479" transform="translate(35.95)"><g id="Gruppe_8478" data-name="Gruppe 8478"><path id="Pfad_3153" data-name="Pfad 3153" d="M247.454,0a1.461,1.461,0,0,0-1.461,1.461V3.648a1.461,1.461,0,0,0,2.923,0V1.461A1.461,1.461,0,0,0,247.454,0Z" transform="translate(-245.993)" fill="#fff"></path></g></g><g id="Gruppe_8481" data-name="Gruppe 8481" transform="translate(28.001 2.808)"><g id="Gruppe_8480" data-name="Gruppe 8480"><path id="Pfad_3154" data-name="Pfad 3154" d="M195.627,21.172l-1.533-1.532a1.461,1.461,0,1,0-2.066,2.068l1.533,1.532a1.461,1.461,0,1,0,2.066-2.068Z" transform="translate(-191.599 -19.213)" fill="#fff"></path></g></g><g id="Gruppe_8483" data-name="Gruppe 8483" transform="translate(42.344 2.845)"><g id="Gruppe_8482" data-name="Gruppe 8482"><path id="Pfad_3155" data-name="Pfad 3155" d="M293.761,19.9a1.461,1.461,0,0,0-2.067,0l-1.521,1.523a1.461,1.461,0,1,0,2.068,2.066l1.521-1.523A1.461,1.461,0,0,0,293.761,19.9Z" transform="translate(-289.746 -19.469)" fill="#fff"></path></g></g></g></g></svg> 