<?xml version="1.0" encoding="UTF-8"?> <svg xmlns="http://www.w3.org/2000/svg" width="97" height="97" viewBox="0 0 97 97"><g id="Digitaler-Workflow" transform="translate(-2726 -1570)"><g id="Hoher-Service" transform="translate(208 -72)"><rect id="Rechteck_99" data-name="Rechteck 99" width="97" height="97" transform="translate(2518 1642)" fill="rgba(255,255,255,0)"></rect></g><g id="touch" transform="translate(2749.21 1583.467)"><path id="Pfad_3140" data-name="Pfad 3140" d="M12.589,44.548a5.254,5.254,0,0,0-6.016-8.438,21.033,21.033,0,0,1-3.809-12.14,21.249,21.249,0,0,1,20-21.207A1.383,1.383,0,1,0,22.6,0,24.017,24.017,0,0,0,0,23.969,23.775,23.775,0,0,0,4.486,37.945a5.253,5.253,0,0,0,8.1,6.6ZM7.115,39.074a2.488,2.488,0,1,1,0,3.519,2.481,2.481,0,0,1,0-3.519Zm0,0" transform="translate(0 0)" fill="#904129" stroke="#fff" stroke-width="0.3"></path><path id="Pfad_3141" data-name="Pfad 3141" d="M93.8,59.462a4.912,4.912,0,0,0-2.408.627,4.943,4.943,0,0,0-8.281-1.942,5.008,5.008,0,0,0-.828-.691,24.014,24.014,0,0,0,14.21-21.92A23.787,23.787,0,0,0,92.008,21.56a5.256,5.256,0,1,0-2.089,1.833,21.251,21.251,0,0,1-12.55,32.823V48.776A14.11,14.11,0,1,0,58.378,35.537a13.994,13.994,0,0,0,2.8,8.442,14.255,14.255,0,0,0,6.3,4.748V69.061l-1.737-2.849a5.092,5.092,0,0,0-6.935-1.771,5.146,5.146,0,0,0-2.045,6.676l5.157,10.417A1.382,1.382,0,1,0,64.4,80.309L59.244,69.9a2.358,2.358,0,0,1,4.136-2.252l4.3,7.054a1.382,1.382,0,0,0,2.563-.72V42.267a2.181,2.181,0,0,1,4.362,0v5.468c0,.01,0,.019,0,.03V68.522a1.382,1.382,0,0,0,2.765,0V61.574a2.181,2.181,0,1,1,4.361,0v7.451a1.382,1.382,0,1,0,2.765,0V61.574a2.181,2.181,0,1,1,4.361,0v7.544a1.382,1.382,0,1,0,2.765,0v-4.71a2.181,2.181,0,1,1,4.362,0V80.921a1.382,1.382,0,1,0,2.765,0V64.408A4.951,4.951,0,0,0,93.8,59.462ZM85.86,20.432a2.489,2.489,0,1,1,3.519,0A2.491,2.491,0,0,1,85.86,20.432Zm-24.717,15.1A11.344,11.344,0,1,1,77.369,45.779V42.267a4.911,4.911,0,0,0-.5-2.166,6.331,6.331,0,1,0-8.848-.082,4.914,4.914,0,0,0-.543,2.248V45.72a11.286,11.286,0,0,1-6.335-10.184Zm8.772,2.471a3.532,3.532,0,0,1-.995-2.471,3.567,3.567,0,1,1,6.09,2.518,4.933,4.933,0,0,0-5.1-.047Zm0,0" transform="translate(-48.48 -11.567)" fill="#904129" stroke="#fff" stroke-width="0.3"></path><path id="Pfad_3142" data-name="Pfad 3142" d="M200.577,6.331a1.384,1.384,0,1,0-.977-.405A1.391,1.391,0,0,0,200.577,6.331Zm0,0" transform="translate(-171.675 -3.074)" fill="#904129" stroke="#fff" stroke-width="0.3"></path></g></g></svg> 