<?xml version="1.0" encoding="UTF-8"?> <svg xmlns="http://www.w3.org/2000/svg" width="97" height="97" viewBox="0 0 97 97"><g id="Entspannt" transform="translate(-2726 -1906)"><g id="Hoher-Service" transform="translate(208 264)"><rect id="Rechteck_99" data-name="Rechteck 99" width="97" height="97" transform="translate(2518 1642)" fill="rgba(255,255,255,0)"></rect></g><g id="Gruppe_8491" data-name="Gruppe 8491" transform="translate(-265.228 -57.228)"><g id="Gruppe_8462" data-name="Gruppe 8462" transform="translate(3023.688 2024.222)"><path id="Pfad_3115" data-name="Pfad 3115" d="M21.825,25.411A21.4,21.4,0,0,1,6.591,19.1a1.346,1.346,0,0,1,1.9-1.9,18.855,18.855,0,0,0,26.661,0,1.346,1.346,0,0,1,1.9,1.9,21.4,21.4,0,0,1-15.235,6.31Z" transform="translate(-6.197 -16.804)" fill="#904129"></path></g><g id="sleeping" transform="translate(3007 1978.758)"><g id="Gruppe_8444" data-name="Gruppe 8444"><path id="Pfad_3116" data-name="Pfad 3116" d="M31.9,63.808A31.9,31.9,0,1,1,47.67,4.161a1.329,1.329,0,1,1-1.316,2.31,29.25,29.25,0,1,0,10.5,10.164,1.33,1.33,0,0,1,2.268-1.39A31.91,31.91,0,0,1,31.9,63.808Z" fill="#904129"></path></g><g id="Gruppe_8445" data-name="Gruppe 8445" transform="translate(13.293 26.587)"><path id="Pfad_3117" data-name="Pfad 3117" d="M11.647,17.976A6.656,6.656,0,0,1,5,11.329a1.329,1.329,0,1,1,2.659,0,3.988,3.988,0,1,0,7.976,0,1.329,1.329,0,1,1,2.659,0A6.656,6.656,0,0,1,11.647,17.976Z" transform="translate(-5 -10)" fill="#904129"></path></g><g id="Gruppe_8446" data-name="Gruppe 8446" transform="translate(37.221 26.587)"><path id="Pfad_3118" data-name="Pfad 3118" d="M20.647,17.976A6.656,6.656,0,0,1,14,11.329a1.329,1.329,0,1,1,2.659,0,3.988,3.988,0,0,0,7.976,0,1.329,1.329,0,1,1,2.659,0A6.656,6.656,0,0,1,20.647,17.976Z" transform="translate(-14 -10)" fill="#904129"></path></g><g id="Gruppe_8448" data-name="Gruppe 8448" transform="translate(53.172)"><path id="Pfad_3120" data-name="Pfad 3120" d="M29.306,10.635H21.33a1.331,1.331,0,0,1-.941-2.27L26.1,2.659H21.33A1.329,1.329,0,1,1,21.33,0h7.976a1.331,1.331,0,0,1,.941,2.27L24.539,7.976h4.767a1.329,1.329,0,1,1,0,2.659Z" transform="translate(-20 0)" fill="#904129"></path></g><g id="Gruppe_8449" data-name="Gruppe 8449" transform="translate(39.879 10.635)"><path id="Pfad_3121" data-name="Pfad 3121" d="M24.305,17.293H16.33a1.329,1.329,0,0,1-1.063-2.127l6.381-8.508H16.33A1.329,1.329,0,0,1,16.33,4h7.976a1.329,1.329,0,0,1,1.063,2.127l-6.381,8.508h5.317a1.329,1.329,0,0,1,0,2.659Z" transform="translate(-15 -4)" fill="#904129"></path></g></g></g></g></svg> 