<?xml version="1.0" encoding="UTF-8"?> <svg xmlns="http://www.w3.org/2000/svg" width="97" height="97" viewBox="0 0 97 97"><g id="Erfahrung-Angst" transform="translate(-2726 -2021)"><g id="Hoher-Service" transform="translate(208 379)"><rect id="Rechteck_99" data-name="Rechteck 99" width="97" height="97" transform="translate(2518 1642)" fill="rgba(255,255,255,0)"></rect></g><g id="Gruppe_8492" data-name="Gruppe 8492" transform="translate(-260 267.099)"><g id="Gruppe_8455" data-name="Gruppe 8455" transform="translate(3002 1772.364)"><path id="Pfad_3116" data-name="Pfad 3116" d="M32.274,64.548A32.274,32.274,0,1,1,48.223,4.209a1.345,1.345,0,1,1-1.331,2.337A29.589,29.589,0,1,0,57.51,16.828,1.346,1.346,0,0,1,59.8,15.422a32.281,32.281,0,0,1-27.53,49.127Z" fill="#904129"></path></g><g id="Gruppe_8459" data-name="Gruppe 8459" transform="translate(3017.291 1794.15)"><g id="Gruppe_8456" data-name="Gruppe 8456"><path id="Pfad_3113" data-name="Pfad 3113" d="M10.449,17.9A5.449,5.449,0,1,1,15.9,12.449,5.454,5.454,0,0,1,10.449,17.9Zm0-8.173a2.724,2.724,0,1,0,2.724,2.724A2.729,2.729,0,0,0,10.449,9.724Z" transform="translate(-5 -7)" fill="#904129"></path></g><g id="Gruppe_8457" data-name="Gruppe 8457" transform="translate(23.905)"><path id="Pfad_3114" data-name="Pfad 3114" d="M20.449,17.9A5.449,5.449,0,1,1,25.9,12.449,5.454,5.454,0,0,1,20.449,17.9Zm0-8.173a2.724,2.724,0,1,0,2.724,2.724A2.729,2.729,0,0,0,20.449,9.724Z" transform="translate(-15 -7)" fill="#904129"></path></g><g id="Gruppe_8458" data-name="Gruppe 8458" transform="translate(1.591 23.371)"><path id="Pfad_3115" data-name="Pfad 3115" d="M22.007,25.511A21.652,21.652,0,0,1,6.6,19.128,1.362,1.362,0,0,1,8.521,17.2a19.074,19.074,0,0,0,26.971,0,1.362,1.362,0,1,1,1.926,1.926,21.652,21.652,0,0,1-15.412,6.383Z" transform="translate(-6.197 -16.804)" fill="#904129"></path></g></g><g id="Gruppe_8463" data-name="Gruppe 8463" transform="matrix(0.035, 0.999, -0.999, 0.035, 3066.596, 1771.039)"><g id="Gruppe_44" data-name="Gruppe 44" transform="translate(0 0)"><path id="Pfad_49" data-name="Pfad 49" d="M7.837,6.7,1.378.236A.807.807,0,0,0,.236,1.378L6.7,7.837A.807.807,0,0,0,7.837,6.7Z" fill="#904129" stroke="#904129" stroke-width="1"></path></g></g><g id="Gruppe_8464" data-name="Gruppe 8464" transform="translate(3072.583 1783.559) rotate(135)"><g id="Gruppe_44-2" data-name="Gruppe 44" transform="translate(0 0)"><path id="Pfad_49-2" data-name="Pfad 49" d="M7.837,6.7,1.378.236A.807.807,0,0,0,.236,1.378L6.7,7.837A.807.807,0,0,0,7.837,6.7Z" fill="#904129" stroke="#904129" stroke-width="1"></path></g></g><g id="Gruppe_8465" data-name="Gruppe 8465" transform="translate(3055.192 1765.333) rotate(45)"><g id="Gruppe_44-3" data-name="Gruppe 44" transform="translate(0 0)"><path id="Pfad_49-3" data-name="Pfad 49" d="M7.837,6.7,1.378.236A.807.807,0,0,0,.236,1.378L6.7,7.837A.807.807,0,0,0,7.837,6.7Z" fill="#904129" stroke="#904129" stroke-width="1"></path></g></g></g></g></svg> 