<?xml version="1.0" encoding="UTF-8"?> <svg xmlns="http://www.w3.org/2000/svg" width="97" height="97" viewBox="0 0 97 97"><g id="Hygiene" transform="translate(-2726 -1683)"><g id="hand-washing" transform="translate(2711.341 1696.983)"><path id="Pfad_3123" data-name="Pfad 3123" d="M155.948,17.152a9.6,9.6,0,0,0-5.362,1.63V8.573a6.447,6.447,0,0,0-9.594-5.609,6.443,6.443,0,0,0-11.631,1.771,6.437,6.437,0,0,0-8.767,5.291,6.436,6.436,0,0,0-8.616,6.054V37.7a2.145,2.145,0,1,0,4.29,0V16.08a2.145,2.145,0,1,1,4.29,0V30.021a2.145,2.145,0,1,0,4.29,0v-19.3a2.145,2.145,0,1,1,4.29,0v19.3a2.145,2.145,0,0,0,4.29,0V6.428a2.145,2.145,0,1,1,4.29,0V30.021a2.145,2.145,0,0,0,4.29,0V8.573a2.145,2.145,0,1,1,4.29,0V36.591a17.334,17.334,0,0,0-14.985,14.527,2.145,2.145,0,1,0,4.231.706,13,13,0,0,1,12.9-11.077,2.145,2.145,0,0,0,2.145-2.145V26.8a5.368,5.368,0,0,1,5.362-5.362,1.074,1.074,0,0,1,1.072,1.072V43.963a20.376,20.376,0,0,1-32.893,16.079,2.145,2.145,0,1,0-2.638,3.383A24.666,24.666,0,0,0,161.31,43.963V22.514a5.369,5.369,0,0,0-5.362-5.362Z" transform="translate(-69.276 0)" fill="#904129" stroke="#fff" stroke-width="1.5"></path><path id="Pfad_3124" data-name="Pfad 3124" d="M57.715,324.822a2.145,2.145,0,0,0-2.145-2.145,8.575,8.575,0,0,1-8.579-8.579,2.145,2.145,0,1,0-4.29,0,8.576,8.576,0,0,1-8.579,8.579,2.145,2.145,0,1,0,0,4.29,8.589,8.589,0,0,1,8.579,8.579,2.145,2.145,0,1,0,4.29,0,8.576,8.576,0,0,1,8.579-8.579A2.145,2.145,0,0,0,57.715,324.822Zm-12.874,3.611a12.978,12.978,0,0,0-3.606-3.606,13.05,13.05,0,0,0,3.611-3.608,13.048,13.048,0,0,0,3.6,3.6A13.049,13.049,0,0,0,44.842,328.433Z" transform="translate(0 -270.135)" fill="#904129" stroke="#fff" stroke-width="1.5"></path></g><g id="Hoher-Service" transform="translate(208 41)"><rect id="Rechteck_99" data-name="Rechteck 99" width="97" height="97" transform="translate(2518 1642)" fill="rgba(255,255,255,0)"></rect></g></g></svg> 