<?xml version="1.0" encoding="UTF-8"?> <svg xmlns="http://www.w3.org/2000/svg" width="97" height="97" viewBox="0 0 97 97"><g id="Metalfrei" transform="translate(-2845 -1570)"><g id="healthy" transform="translate(2845.381 1562.701)"><g id="Gruppe_8461" data-name="Gruppe 8461" transform="translate(16 24)"><path id="Pfad_3137" data-name="Pfad 3137" d="M24.694,109.379V113.6a1.087,1.087,0,1,0,2.173,0V109.25c0-.324,0-.557-4.271-11.094-2.073-5.113-4.173-10.225-4.19-10.267a3.249,3.249,0,0,1-.233-1.211V59.26c0-.6,1.574-1.086,2.173-1.087h.021c.6,0,2.152.487,2.152,1.087V73.575a3.266,3.266,0,0,0-2.173,3.073,1.09,1.09,0,0,0,.021.213l2.173,10.867a1.087,1.087,0,0,0,.122.326l4.347,7.607A1.087,1.087,0,0,0,28.9,94.583l-4.26-7.454L22.524,76.559a1.088,1.088,0,0,1,1.083-1h2.14a4.107,4.107,0,0,1,1.195,1.494l3.231,10.772a1.087,1.087,0,0,0,.339.517c.035.03,3.547,3.008,7.007,6.469,6.08,6.081,6.736,8.322,6.736,9V113.6a1.087,1.087,0,0,0,2.173,0v-9.781c0-.783,0-3.167-7.382-10.549-2.989-2.989-6.014-5.623-6.883-6.37L29,76.336a1.081,1.081,0,0,0-.069-.174c-.325-.651-1.514-2.774-3.145-2.774H24.694V59.26c0-1.8-2.526-3.258-4.326-3.26h-.021C18.547,56,16,57.46,16,59.26V86.678a5.42,5.42,0,0,0,.392,2.027C19.533,96.349,24.26,107.98,24.694,109.379Z" transform="translate(-16 -51.653)" fill="#904129"></path><path id="Pfad_3138" data-name="Pfad 3138" d="M298.082,56h-.021c-1.8,0-4.324,1.46-4.326,3.26V73.388h-1.087c-1.632,0-2.82,2.123-3.145,2.774a1.074,1.074,0,0,0-.069.174L286.265,86.9c-.869.747-3.894,3.381-6.883,6.37C272,100.65,272,103.033,272,103.817V113.6a1.087,1.087,0,0,0,2.173,0v-9.781c0-.681.656-2.921,6.736-9,3.46-3.461,6.972-6.439,7.007-6.469a1.086,1.086,0,0,0,.34-.517l3.231-10.771a4.094,4.094,0,0,1,1.195-1.494h2.14a1.088,1.088,0,0,1,1.083,1l-2.114,10.57-4.259,7.454a1.087,1.087,0,1,0,1.887,1.078l4.347-7.607a1.086,1.086,0,0,0,.122-.326l2.173-10.867a1.091,1.091,0,0,0,.021-.213,3.266,3.266,0,0,0-2.173-3.073V59.26c0-.6,1.553-1.086,2.153-1.087h.021c.6,0,2.173.487,2.173,1.087V86.678a3.237,3.237,0,0,1-.229,1.2c-.021.051-2.121,5.162-4.194,10.276-4.271,10.537-4.271,10.771-4.271,11.094V113.6a1.087,1.087,0,1,0,2.173,0v-4.218c.434-1.4,5.161-13.03,8.305-20.683a5.407,5.407,0,0,0,.389-2.018V59.26c0-1.8-2.547-3.258-4.347-3.26Z" transform="translate(-237.224 -51.653)" fill="#904129"></path><path id="Pfad_3139" data-name="Pfad 3139" d="M183.214,24h-6.52a1.087,1.087,0,0,0-1.087,1.087v6.52h-6.52A1.087,1.087,0,0,0,168,32.694v6.52a1.087,1.087,0,0,0,1.087,1.087h6.52v6.52a1.087,1.087,0,0,0,1.087,1.087h6.52a1.087,1.087,0,0,0,1.087-1.087V40.3h6.52a1.087,1.087,0,0,0,1.087-1.087v-6.52a1.087,1.087,0,0,0-1.087-1.087H184.3v-6.52A1.087,1.087,0,0,0,183.214,24Zm6.52,9.781v4.347h-6.52a1.087,1.087,0,0,0-1.087,1.087v6.52h-4.347v-6.52a1.087,1.087,0,0,0-1.087-1.087h-6.52V33.781h6.52a1.087,1.087,0,0,0,1.087-1.087v-6.52h4.347v6.52a1.087,1.087,0,0,0,1.087,1.087Z" transform="translate(-147.352 -24)" fill="#904129"></path></g></g><g id="Hoher-Service" transform="translate(327 -72)"><rect id="Rechteck_99" data-name="Rechteck 99" width="97" height="97" transform="translate(2518 1642)" fill="rgba(255,255,255,0)"></rect></g></g></svg> 