<?xml version="1.0" encoding="UTF-8"?> <svg xmlns="http://www.w3.org/2000/svg" width="97" height="97" viewBox="0 0 97 97"><g id="Soziales-Engagement" transform="translate(-2726 -1794)"><path id="Pfad_3136" data-name="Pfad 3136" d="M223.646,343.935c1.037,4.889-.406,7.043-5.045,7.392.052,2.649-.8,4.85-3.528,5.768-2.628.885-4.691-.2-6.343-2.13-1.642,2.068-3.273,4.093-4.872,6.144-1.457,1.87-3.29,2.769-5.638,2.09a4.806,4.806,0,0,1-3.648-4.616,1.638,1.638,0,0,0-.114-.36c-4.158-.608-5.063-1.432-5.941-5.391-3.949-.423-5.242-1.592-5.835-5.363-2.38.042-4.386-.74-5.375-3.1s-.2-4.359,1.717-6.3c-1.729-1.636-3.383-3.183-5.016-4.751-.916-.88-1.765-1.833-2.7-2.687-6.827-6.217-6.7-16.012-1.834-22.695,4.062-5.577,9.4-9.022,16.546-8.9a15.039,15.039,0,0,1,11.375,5.189c.933,1.044,1.877,2.078,3.068,3.395a22.411,22.411,0,0,1,1.441-1.733,19.283,19.283,0,0,1,24.921-1.93c8.162,5.948,10.91,16.216,6.587,24.836a20.969,20.969,0,0,1-5.1,6.427,1.345,1.345,0,0,0-.516,1.681c1.24,3.6-.212,6.072-3.944,6.884C223.771,343.8,223.711,343.882,223.646,343.935Zm-24.977-34.8c-1.1-1.216-2.124-2.352-3.151-3.485a12.8,12.8,0,0,0-9.419-4.29c-6.835-.227-13.625,4.355-16.481,11.049a14.2,14.2,0,0,0,3.119,16.314c.9.9,1.718,1.871,2.62,2.764,1.632,1.613,3.3,3.191,5.041,4.872,1.757-2.612,3.679-4.59,7.1-3.653a4.693,4.693,0,0,1,3.543,4.451c1.58.687,3.151.992,4.157,1.915s1.446,2.462,2.219,3.889c3.391.218,4.824,1.526,5.5,5.417,2.454-.351,4.079,1.012,5.53,2.789a37.056,37.056,0,0,0,2.776,2.982,2.932,2.932,0,0,0,3.512.57,2.561,2.561,0,0,0,1.431-2.849,4.876,4.876,0,0,0-1.14-2.147c-3.286-3.646-6.632-7.238-9.957-10.848-.238-.258-.612-.5-.665-.792-.089-.5-.161-1.224.114-1.493s1-.176,1.492-.069c.287.063.5.46.746.715,3.2,3.371,6.363,6.771,9.609,10.093a5.8,5.8,0,0,0,2.4,1.473,2.248,2.248,0,0,0,2.927-2.613,5.8,5.8,0,0,0-1.33-2.623c-2.309-2.637-4.733-5.172-7.106-7.753-1.479-1.609-2.954-3.222-4.408-4.854-.472-.53-.724-1.16-.054-1.72s1.289-.312,1.838.269q4.92,5.2,9.851,10.39c1.581,1.658,3.449,2.027,4.629.961,1.218-1.1,1.046-2.932-.508-4.677-3.082-3.461-6.192-6.9-9.29-10.344l-7.863-8.748c-.414.374-.77.685-1.115,1.009q-4.938,4.633-9.874,9.268a5.856,5.856,0,0,1-5.144,1.71,5.885,5.885,0,0,1-3.236-9.991c1.515-1.52,3.123-2.947,4.689-4.417C194.719,312.846,196.663,311.019,198.669,309.135Zm27.46,25.185a50.643,50.643,0,0,0,3.714-4.165c5.453-7.628,3.988-17.269-3.5-23.605a16.941,16.941,0,0,0-23.017,1.2q-3.224,3.188-6.5,6.323c-2.314,2.207-4.678,4.363-6.994,6.568a3.368,3.368,0,0,0-.977,3.717,3.433,3.433,0,0,0,2.851,2.42,3.746,3.746,0,0,0,3.3-1.246c3.758-3.551,7.538-7.077,11.3-10.626.741-.7,1.451-.995,2.241-.108q6.729,7.552,13.462,15.1C223.311,331.363,224.675,332.767,226.128,334.321Zm-32.07,21.446a4.184,4.184,0,0,0,1.474-.809c1.557-1.776,3.053-3.612,4.467-5.5a2.538,2.538,0,0,0-.574-3.526,2.486,2.486,0,0,0-3.461.159,65.75,65.75,0,0,0-4.53,5.618C190.239,353.406,191.61,355.75,194.059,355.767ZM185.622,334.7a3.427,3.427,0,0,0-1.38.684c-1.607,1.843-3.172,3.733-4.621,5.7a2.485,2.485,0,0,0,.616,3.405,2.511,2.511,0,0,0,3.462-.138,67.518,67.518,0,0,0,4.535-5.606C189.441,337.047,188.093,334.732,185.622,334.7Zm2.556,15.715a4.054,4.054,0,0,0,1.463-.79c1.556-1.775,3.052-3.609,4.464-5.5a2.551,2.551,0,0,0-.569-3.524,2.492,2.492,0,0,0-3.459.153,65.774,65.774,0,0,0-4.537,5.607C184.34,348.066,185.7,350.39,188.178,350.418Zm18.162,3.234a2.763,2.763,0,0,0-1.725-2.78,2.47,2.47,0,0,0-2.974.735q-2.02,2.413-3.966,4.889a2.71,2.71,0,0,0,.207,3.967,2.663,2.663,0,0,0,3.921-.56c1.317-1.577,2.619-3.169,3.863-4.8A6.106,6.106,0,0,0,206.34,353.652Z" transform="translate(2573.021 1513.412)" fill="#904129" stroke="#904129" stroke-width="0.3"></path><g id="Hoher-Service" transform="translate(208 152)"><rect id="Rechteck_99" data-name="Rechteck 99" width="97" height="97" transform="translate(2518 1642)" fill="rgba(255,255,255,0)"></rect></g></g></svg> 